<?xml version="1.0" standalone="no"?>
<!DOCTYPE svg PUBLIC "-//W3C//DTD SVG 20010904//EN"
 "http://www.w3.org/TR/2001/REC-SVG-20010904/DTD/svg10.dtd">
<svg version="1.0" xmlns="http://www.w3.org/2000/svg"
 width="712.000000pt" height="712.000000pt" viewBox="0 0 712.000000 712.000000"
 preserveAspectRatio="xMidYMid meet">
<metadata>
Created by potrace 1.11, written by Peter Selinger 2001-2013
</metadata>
<g transform="translate(0.000000,712.000000) scale(0.100000,-0.100000)"
fill="#000000" stroke="none">
<path d="M3322 6820 c-18 -29 -16 -40 24 -132 51 -117 47 -107 199 -473 75
-181 165 -397 200 -480 92 -219 193 -458 230 -550 18 -44 126 -303 240 -575
114 -272 209 -500 212 -507 10 -24 53 -22 141 7 103 34 294 74 432 91 151 18
560 15 621 -5 8 -3 34 -7 59 -10 52 -5 170 -30 248 -50 64 -17 99 -7 109 33 3
14 9 31 13 36 4 6 31 69 59 140 29 72 57 139 61 150 31 72 73 173 105 250 20
50 43 104 50 120 7 17 54 131 105 255 51 124 98 239 105 255 7 17 18 44 25 60
53 128 341 826 350 850 4 11 15 36 23 55 8 19 54 128 101 243 83 201 86 208
70 232 l-16 25 -1877 0 c-1861 0 -1876 0 -1889 -20z"/>
<path d="M1542 5207 c-1229 -1229 -1323 -1325 -1318 -1351 3 -16 6 -29 8 -31
2 -1 116 -48 253 -104 138 -57 264 -109 280 -116 80 -35 446 -185 450 -185 2
0 28 -11 57 -24 29 -13 105 -45 168 -71 63 -26 169 -70 235 -97 66 -27 158
-65 205 -84 87 -36 99 -41 160 -67 19 -8 98 -41 175 -72 77 -32 208 -86 290
-120 471 -197 545 -225 569 -219 18 4 30 22 52 72 191 459 491 833 867 1085
45 30 80 61 83 74 5 20 -36 127 -123 313 -19 41 -53 117 -75 169 -22 52 -43
101 -48 110 -16 32 -80 172 -80 176 0 3 -11 28 -24 57 -13 29 -50 112 -81 183
-32 72 -65 148 -76 170 -10 22 -47 105 -82 185 -35 80 -174 393 -307 695 -134
303 -248 556 -253 563 -32 43 -14 60 -1385 -1311z"/>
<path d="M22 3433 l-22 -15 0 -1558 c0 -1496 1 -1558 18 -1573 17 -16 131 -17
1439 -17 1279 0 1422 2 1434 16 10 12 13 152 15 687 1 370 5 686 8 702 2 17 8
74 11 129 6 95 13 158 36 324 19 138 20 147 7 163 -7 9 -49 30 -93 47 -44 17
-201 79 -350 137 -148 59 -362 143 -475 186 -113 44 -214 84 -225 89 -11 5
-108 44 -215 86 -107 42 -323 127 -480 188 -157 62 -366 145 -465 184 -99 39
-278 109 -398 156 -120 47 -219 86 -220 85 -1 0 -12 -7 -25 -16z"/>
</g>
</svg>
